<?xml version="1.0" encoding="utf-8"?>
<!-- Generator: Adobe Illustrator 23.1.0, SVG Export Plug-In . SVG Version: 6.00 Build 0)  -->
<svg version="1.1" id="Layer_1" xmlns="http://www.w3.org/2000/svg" xmlns:xlink="http://www.w3.org/1999/xlink" x="0px" y="0px"
	 viewBox="0 0 1080 634.4" style="enable-background:new 0 0 1080 634.4;" xml:space="preserve">
<style type="text/css">
	.st0{fill:#DFB31D;}
	.st1{fill:#111111;}
</style>
<g>
	<g>
		<path class="st0" d="M1080,85.4V549c0,47.2-38.2,85.4-85.4,85.4H42c-30.9,0-51.2-32.3-37.8-60.1l47.4-98.5l76.3-158.6L51.6,158.6
			L4.2,60.1C-9.2,32.3,11.1,0,42,0h952.6C1041.8,0,1080,38.2,1080,85.4z"/>
	</g>
	<g>
		<g>
			<path class="st1" d="M309.8,282.9l45.6-196.5h48.7v296.5h-47.5V246.5l-29,136.4h-34.7l-30.1-137.3v137.3h-48V86.4h48.7
				L309.8,282.9z"/>
			<path class="st1" d="M567.5,323.5c0,42.6-21.3,64-64,64.1c-42.6,0-63.8-21.4-63.8-64.1V145.8c0-42.6,21.3-64,63.8-64
				c42.6,0,64,21.3,64,64V323.5z M518.2,145.8c0-11.1-4.8-16.6-14.5-16.7h-0.3c-9.6,0-14.4,5.6-14.4,16.7v177.7
				c0,11.2,4.8,16.7,14.5,16.7c9.8,0,14.7-5.6,14.7-16.7V145.8z"/>
			<path class="st1" d="M697.8,382.9h-64l-30.1-190.4l-14.1-106h49.8l26.2,232.4L692,86.4h49.8l-14.1,106.3L697.8,382.9z"/>
			<path class="st1" d="M767.7,86.4H817v296.5h-49.3V86.4z"/>
			<path class="st1" d="M856.3,86.4h116.1v47.2h-66.8v77.3H963v47.4h-57.5v77.3h66.8v47.2H856.3V86.4z"/>
		</g>
		<g>
			<path class="st1" d="M214.9,432.1h55.5c5.6,0,10.7,0.5,15.3,1.5c4.6,1,8.6,2.6,11.9,4.9s5.9,5.3,7.7,9c1.8,3.7,2.7,8.4,2.7,13.9
				c0,5.9-1.3,10.9-4,14.9c-2.7,4-6.7,7.2-12,9.7c7.3,2.1,12.7,5.7,16.3,11c3.6,5.2,5.4,11.5,5.4,18.9c0,5.9-1.2,11.1-3.5,15.4
				c-2.3,4.3-5.4,7.9-9.3,10.6c-3.9,2.8-8.4,4.8-13.4,6.1s-10.2,2-15.4,2h-57.1V432.1z M240.8,479.8H267c4.6,0,8.4-1.1,11.4-3.3
				c3-2.2,4.5-5.8,4.5-10.7c0-2.8-0.5-5-1.5-6.8c-1-1.8-2.3-3.1-4-4.1c-1.7-1-3.5-1.7-5.7-2.1c-2.1-0.4-4.4-0.6-6.7-0.6h-24.3V479.8
				z M240.8,529.8h27.7c2.5,0,5-0.2,7.3-0.7c2.3-0.5,4.3-1.3,6.1-2.5c1.8-1.2,3.2-2.7,4.2-4.7s1.6-4.5,1.6-7.6
				c0-6.1-1.7-10.4-5.1-13c-3.4-2.6-7.9-3.9-13.5-3.9h-28.2V529.8z"/>
			<path class="st1" d="M452.2,505.4c0,16-4.5,27.8-13.4,35.6c-8.9,7.8-21.2,11.6-37,11.6c-16,0-28.3-3.9-37.1-11.6
				c-8.7-7.7-13.1-19.6-13.1-35.6v-73.3h25.9v73.3c0,3.2,0.3,6.3,0.8,9.4c0.6,3.1,1.7,5.8,3.5,8.2c1.8,2.4,4.2,4.3,7.3,5.8
				c3.1,1.5,7.3,2.2,12.6,2.2c9.2,0,15.6-2.1,19.1-6.2c3.5-4.1,5.3-10.6,5.3-19.4v-73.3h25.9V505.4z"/>
			<path class="st1" d="M495.6,432.1h63.5c5.3,0,10,0.9,14.3,2.6c4.2,1.7,7.9,4,10.9,7c3,3,5.3,6.4,6.9,10.3
				c1.6,3.9,2.4,8.1,2.4,12.6c0,6.9-1.5,12.9-4.4,18c-2.9,5.1-7.7,8.9-14.3,11.6v0.3c3.2,0.9,5.8,2.2,7.9,4c2.1,1.8,3.8,4,5.1,6.4
				c1.3,2.5,2.3,5.2,2.9,8.2c0.6,3,1,5.9,1.2,8.9c0.1,1.9,0.2,4.1,0.3,6.6s0.3,5.1,0.6,7.8c0.3,2.6,0.7,5.1,1.3,7.5
				c0.6,2.4,1.5,4.4,2.7,6h-25.9c-1.4-3.7-2.3-8.2-2.6-13.4c-0.3-5.2-0.8-10.1-1.5-14.9c-0.9-6.2-2.8-10.7-5.6-13.5
				c-2.9-2.9-7.5-4.3-14-4.3h-25.9v46h-25.9V432.1z M521.6,485.4h28.4c5.9,0,10.4-1.3,13.4-4c3-2.6,4.5-6.9,4.5-12.9
				c0-5.7-1.5-9.9-4.5-12.5c-3-2.6-7.4-3.9-13.4-3.9h-28.4V485.4z"/>
			<path class="st1" d="M635.9,432.1h88.1v21.8h-62.2v25.3h57.1v20.1h-57.1v28.9h63.5V550h-89.5V432.1z"/>
			<path class="st1" d="M796.2,432.1h26.6L866.8,550h-26.9l-8.9-26.2h-44.1l-9.2,26.2h-26.1L796.2,432.1z M793.7,504.4h30.5
				l-14.9-43.2h-0.3L793.7,504.4z"/>
			<path class="st1" d="M998.2,505.4c0,16-4.5,27.8-13.4,35.6c-8.9,7.8-21.2,11.6-37,11.6c-16,0-28.3-3.9-37.1-11.6
				c-8.7-7.7-13.1-19.6-13.1-35.6v-73.3h25.9v73.3c0,3.2,0.3,6.3,0.8,9.4c0.6,3.1,1.7,5.8,3.5,8.2c1.8,2.4,4.2,4.3,7.3,5.8
				c3.1,1.5,7.3,2.2,12.6,2.2c9.2,0,15.6-2.1,19.1-6.2c3.5-4.1,5.3-10.6,5.3-19.4v-73.3h25.9V505.4z"/>
		</g>
	</g>
</g>
</svg>
